# xmcd
#
# Track frame offsets:
#	150
#	11742
#	26090
#	36900
#	50782
#	62047
#	75787
#	86145
#	94187
#	103940
#	114237
#	143970
#	155982
#	171285
#	187187
#	199192
#	211510
#	225855
#	237797
#	248900
#	261562
#	272455
#
# Disc length: 3844 seconds
#
# Revision: 2
# Processed by: cddbd v1.5.2PL0 Copyright (c) Steve Scherf et al.
# Submitted via: EasyCDDAExtractor 16.0.9.1
#
DISCID=340f0216
DTITLE=Chayito Valdez - Disco de Oro
DYEAR=2013
DGENRE=Ranchera
TTITLE0=Bonita Finca de Adobe
TTITLE1=Y por esa calle vive
TTITLE2=Mi golondrina
TTITLE3=Vestida de color de rosa
TTITLE4=Carabina 30-30
TTITLE5=Caballo Prieto Azabache
TTITLE6=La frontera de Tijuana
TTITLE7=Mi casa nueva
TTITLE8=Aguanta Corazon
TTITLE9=Eslabon por eslabon
TTITLE10=El chante Luna
TTITLE11=Caballo prieto afamado
TTITLE12=El moro de Cumpas
TTITLE13=Seis Pies Abajo
TTITLE14=El ilegal
TTITLE15=Jaula de oro
TTITLE16=El tio Juan
TTITLE17=Contrabando del Aire
TTITLE18=Toro Godines
TTITLE19=Benjamin Argumedo
TTITLE20=Quisiera tener alas
TTITLE21=A que si te acuerdas
EXTD=
EXTT0=
EXTT1=
EXTT2=
EXTT3=
EXTT4=
EXTT5=
EXTT6=
EXTT7=
EXTT8=
EXTT9=
EXTT10=
EXTT11=
EXTT12=
EXTT13=
EXTT14=
EXTT15=
EXTT16=
EXTT17=
EXTT18=
EXTT19=
EXTT20=
EXTT21=
PLAYORDER=
